<svg width="40" height="40" viewBox="0 0 40 40" fill="none" xmlns="http://www.w3.org/2000/svg">
<g clip-path="url(#clip0_401_397)">
<path d="M11.2666 8.06666L8.26663 5.08333L5.91663 7.43333L8.89996 10.4167L11.2666 8.06666ZM6.66663 17.5H1.66663V20.8333H6.66663V17.5ZM21.6666 0.916664H18.3333V5.83333H21.6666V0.916664V0.916664ZM34.0833 7.43333L31.7333 5.08333L28.75 8.06666L31.1 10.4167L34.0833 7.43333ZM28.7333 30.2667L31.7166 33.2667L34.0666 30.9167L31.0666 27.9333L28.7333 30.2667ZM33.3333 17.5V20.8333H38.3333V17.5H33.3333ZM20 9.16666C14.4833 9.16666 9.99996 13.65 9.99996 19.1667C9.99996 24.6833 14.4833 29.1667 20 29.1667C25.5166 29.1667 30 24.6833 30 19.1667C30 13.65 25.5166 9.16666 20 9.16666ZM18.3333 37.4167H21.6666V32.5H18.3333V37.4167ZM5.91663 30.9L8.26663 33.25L11.25 30.25L8.89996 27.9L5.91663 30.9Z" fill="white"/>
</g>
<defs>
<clipPath id="clip0_401_397">
<rect width="40" height="40" fill="white"/>
</clipPath>
</defs>
</svg>
